<?xml version="1.0" encoding="UTF-8" standalone="no"?>
<!-- Created with Inkscape (http://www.inkscape.org/) -->

<svg
   width="210mm"
   height="210mm"
   viewBox="0 0 210 210"
   version="1.1"
   id="svg13617"
   inkscape:version="1.2.2 (732a01da63, 2022-12-09, custom)"
   sodipodi:docname="logo.svg"
   xmlns:inkscape="http://www.inkscape.org/namespaces/inkscape"
   xmlns:sodipodi="http://sodipodi.sourceforge.net/DTD/sodipodi-0.dtd"
   xmlns:xlink="http://www.w3.org/1999/xlink"
   xmlns="http://www.w3.org/2000/svg"
   xmlns:svg="http://www.w3.org/2000/svg">
  <sodipodi:namedview
     id="namedview13619"
     pagecolor="#ffffff"
     bordercolor="#666666"
     borderopacity="1.0"
     inkscape:showpageshadow="2"
     inkscape:pageopacity="0.0"
     inkscape:pagecheckerboard="0"
     inkscape:deskcolor="#d1d1d1"
     inkscape:document-units="mm"
     showgrid="false"
     inkscape:zoom="0.5946522"
     inkscape:cx="157.23477"
     inkscape:cy="365.76002"
     inkscape:window-width="1920"
     inkscape:window-height="1055"
     inkscape:window-x="0"
     inkscape:window-y="0"
     inkscape:window-maximized="1"
     inkscape:current-layer="layer1" />
  <defs
     id="defs13614">
    <linearGradient
       inkscape:collect="always"
       id="linearGradient21182">
      <stop
         style="stop-color:#976aec;stop-opacity:1;"
         offset="0.47901005"
         id="stop21178" />
      <stop
         style="stop-color:#7f6be0;stop-opacity:1;"
         offset="0.77123266"
         id="stop24092" />
      <stop
         style="stop-color:#7056e7;stop-opacity:1;"
         offset="1"
         id="stop21180" />
    </linearGradient>
    <radialGradient
       inkscape:collect="always"
       xlink:href="#linearGradient21182"
       id="radialGradient21186"
       cx="104.41995"
       cy="105.26627"
       fx="104.41995"
       fy="105.26627"
       r="95.921356"
       gradientUnits="userSpaceOnUse" />
  </defs>
  <g
     inkscape:label="Calque 1"
     inkscape:groupmode="layer"
     id="layer1">
    <path
       id="rect18998"
       style="fill:url(#radialGradient21186);fill-opacity:1;fill-rule:evenodd;stroke-width:0.369829"
       d="M 51.832495 9.345166 C 27.825416 9.345166 8.4987061 28.671876 8.4987061 52.678955 L 8.4987061 157.85341 C 8.4987061 181.86049 27.825416 201.18772 51.832495 201.18772 L 157.00695 201.18772 C 181.01403 201.18772 200.34126 181.86049 200.34126 157.85341 L 200.34126 52.678955 C 200.34126 28.671876 181.01403 9.345166 157.00695 9.345166 L 51.832495 9.345166 z M 95.634989 46.192013 L 113.16622 46.192013 C 117.68466 46.192013 121.32231 49.829654 121.32231 54.348104 L 121.32231 89.824491 L 156.06386 89.824491 C 160.5823 89.824491 164.21995 93.462133 164.21995 97.980583 L 164.21995 115.51233 C 164.21995 120.03077 160.5823 123.66842 156.06386 123.66842 L 121.32231 123.66842 L 121.32231 159.42903 C 121.32231 163.94747 117.68466 167.58512 113.16622 167.58512 L 95.634989 167.58512 C 91.116541 167.58512 87.478898 163.94747 87.478898 159.42903 L 87.478898 123.66842 L 50.983451 123.66842 C 46.465003 123.66842 42.82736 120.03077 42.82736 115.51233 L 42.82736 97.980583 C 42.82736 93.462133 46.465003 89.824491 50.983451 89.824491 L 87.478898 89.824491 L 87.478898 54.348104 C 87.478898 49.829654 91.116541 46.192013 95.634989 46.192013 z " />
  </g>
</svg>
