<?xml version="1.0" encoding="UTF-8"?>
<svg xmlns="http://www.w3.org/2000/svg" width="419" height="349">
<path fill="#1e3799" d="M155,143c2.6,12.4 6.7,24 12.7,46.7c5,18.5 5,37.2 5,47.6c0,0 0,0-0.2,0c-1-0.3-2-0.6-2.7-0.8c-0.3,0-0.6-0.2-0.8-0.2c-0.2,0-0.2,0-0.2,0l-6.5,18.8c0.2,0 2.3,0.8 5.2,1.5c3,0.7 6.5,1.6 10.7,1.6c1.9,0 4,0 6.8-1.3c1.4-0.6 3-1.5 4.4-3c1.4-1.5 2.5-3.7 2.9-5.7c0.3-1.5 0.2-2 0.3-2.7c0-0.7 0-1.5 0-2.4c0-3-0.1-8-0.3-14c5.3-3 17.4-10.4 29.6-18c8-5 16.2-10.3 22.5-14.7c3.2-2.2 5.8-4.2 8-6c1.1-1 2.1-1.8 3.1-3c0.5-0.6 1.1-1.3 1.7-2.3c0.6-1 1.4-2.5 1.5-5.4c0-1.3-0.3-3-1-4.5c-0.7-1.6-2-3-3.1-3.8c-3.2-2.4-42.3-32.7-58.3-44.7c8.2-4.6 26.3-9 38.3-15.3c6.3-3.3 4-10.8 8.5-13l53,78.6l10.5-7l-46.5-81.7c0,0-0.3-3.6 0.3-4.3c1.4-1.7 2.9-3.7 4.5-5.7c2.6,0.8 5.3,1.2 8,1.2c15.7,0 28.5-12.8 28.5-28.5 s-12.8-28.5-28.5-28.5c-10.6,0-19.8,5.8-24.7,14.3c-1.5-1.4-3-2.9-4.8-4.3c-6-5-9-9-19-8 s-10,9-13,15 s 3,10 9,7 s 16-5 19-4c1.4,0.5 3.6,1.7 5.5,3c-0.3,1.8-0.5,3.6-0.5,5.5c0,5.7 1.7,10.9 4.5,15.4c-2,2.5-3.8,4.8-5.4,6.8c-0.5,0.7-1,1.3-1.5,1.9c-0.8,1-4,3.5-5,4c-6,3-17,8.7-28,14.4c-8.3,4.3-16.6,8.8-23,12.3c-3.3,1.8-21.3,10-23.5,11.2c-0.7,0.4-1.3,0.8-1.8,1C151.6,123.6 153.4,137 155,143M202,200c-4,2.4-7.6,4.6-10.8,6.6c-0.2-5.7-7.3-47.3-8.6-60c13.3,10 38.9,25 50.3,33.5C225,185.4 212.8,193.2 202,200"/>
<g fill="none" stroke="#1e3799" stroke-width="14"> 
<circle cx="93" cy="246" r="73"/>
<circle cx="319" cy="246" r="73"/>
</g></svg>
